:SAMPLES-PER-SECOND 30
:FULLY-SPECIFIED
:DEGREES
499
root  -20.9888 39.9199 -16.596 -11.7346 -84.6574 0.416693
RightUpLeg  -9.79507 -24.4116 -11.4544
RightLeg  19.332 -8.47765 -3.74046
RightFoot  -1.17859 -0.575636 6.37124
RightToes  0.00048216 0.542163 -0.142577
Spine  21.0623 -0.568061 4.93746
Spine1  10.8769 2.27552 -7.40808
HEad  3.30986 30.5794 -19.0332
LeftShoulder1  9.57205 -14.2768 -46.9773
LeftArm  -10.5669 10.8221 -20.9174
LeftForeArm  18.5304 -28.0878 -5.06002
LeftHand  -0.25398 0.0180481 5.50724
RightShoulder  6.26982 10.5295 38.609
RightArm  -2.12585 -10.6864 33.9675
RightForeArm  -6.5683 19.2125 5.74069
RightHand  -1.11083 1.55056 -18.658
LeftUpLeg  3.96857 7.62854 -0.959016
LeftLeg  21.547 2.84568 1.54852
LeftFoot  -13.5472 0.146882 3.34155
LeftToes  1.06248e-005 4.65855e-005 -8.185e-006
500
root  -20.2927 40.1454 -16.3066 -10.3661 -85.2304 -1.13529
RightUpLeg  -7.72757 -20.9473 -11.6085
RightLeg  24.1489 -11.0704 -5.58907
RightFoot  -2.39898 -0.481986 5.94774
RightToes  0.00048216 0.542163 -0.142577
Spine  19.5599 -0.353979 5.82678
Spine1  11.7176 2.82032 -8.15746
HEad  7.0497 34.5123 -18.7369
LeftShoulder1  9.29123 -13.8938 -46.5937
LeftArm  -10.3082 11.9728 -20.8958
LeftForeArm  18.7502 -29.247 -5.31608
LeftHand  -0.25398 0.0180481 5.50724
RightShoulder  6.081 10.3278 37.9233
RightArm  -2.19652 -7.28182 33.6111
RightForeArm  -8.03856 20.2386 5.58581
RightHand  -1.18088 1.95118 -18.7614
LeftUpLeg  4.50143 9.04035 -0.831652
LeftLeg  18.6968 2.02479 0.639808
LeftFoot  -11.317 0.0672769 4.3209
LeftToes  1.06248e-005 4.65855e-005 -8.185e-006
501
root  -19.6132 40.2908 -16.0353 -16.8351 -85.6257 6.20516
RightUpLeg  -6.89489 -18.9456 -11.8191
RightLeg  29.0822 -11.8456 -7.25594
RightFoot  -3.66487 -0.419493 5.88143
RightToes  0.00048216 0.542163 -0.142577
Spine  16.6813 0.185805 5.85383
Spine1  13.104 3.45744 -8.38687
HEad  10.4009 37.4631 -17.6409
LeftShoulder1  9.09214 -13.6023 -46.3658
LeftArm  -10.4989 13.3686 -20.9907
LeftForeArm  18.6688 -30.3688 -5.5862
LeftHand  -0.25398 0.0180481 5.50724
RightShoulder  5.92716 10.1745 37.3134
RightArm  -2.93939 -3.9871 33.3462
RightForeArm  -8.02994 21.2729 5.41112
RightHand  -1.17192 2.1431 -18.1689
LeftUpLeg  3.74504 8.86748 -1.86225
LeftLeg  16.1435 2.89767 -0.177367
LeftFoot  -9.145 -0.0472856 5.32153
LeftToes  1.06248e-005 4.65855e-005 -8.185e-006
502
root  -18.9679 40.3315 -15.7901 -32.4547 -85.6195 23.4197
RightUpLeg  -6.73676 -17.6765 -12.5041
RightLeg  34.0819 -10.9608 -8.11056
RightFoot  -4.72078 -0.398393 6.32563
RightToes  0.00048216 0.542163 -0.142577
Spine  12.838 0.972267 5.01636
Spine1  14.6614 4.23437 -8.50555
HEad  13.4346 39.3786 -15.8736
LeftShoulder1  8.99443 -13.418 -46.3667
LeftArm  -10.8684 14.9697 -20.9833
LeftForeArm  18.1994 -31.0679 -5.78176
LeftHand  -0.25398 0.0180481 5.50724
RightShoulder  5.80955 10.0335 36.9094
RightArm  -4.12352 -1.12644 33.182
RightForeArm  -7.5958 22.404 5.3215
RightHand  -1.16931 2.36229 -17.6431
LeftUpLeg  1.98818 7.7233 -3.93513
LeftLeg  14.0241 4.79536 -0.795354
LeftFoot  -7.16873 -0.187879 6.34706
LeftToes  1.06248e-005 4.65855e-005 -8.185e-006
503
root  -18.3356 40.3365 -15.5728 -45.1172 -85.3901 37.1105
RightUpLeg  -5.38889 -16.6969 -12.9304
RightLeg  38.1467 -9.81331 -8.43706
RightFoot  -5.55657 -0.384969 6.8585
RightToes  0.00048216 0.542163 -0.142577
Spine  9.82647 1.64771 4.55935
Spine1  15.9121 5.09565 -8.88793
HEad  16.0139 40.3653 -13.7924
LeftShoulder1  8.95709 -13.2791 -46.561
LeftArm  -11.2496 16.5381 -20.9173
LeftForeArm  17.5021 -31.0792 -5.82444
LeftHand  -0.25398 0.0180481 5.50724
RightShoulder  5.73219 9.88015 36.8258
RightArm  -5.27623 1.44837 33.025
RightForeArm  -7.63957 23.5156 5.4142
RightHand  -1.22716 2.72027 -17.7107
LeftUpLeg  0.678998 6.39749 -5.5642
LeftLeg  12.2398 6.62736 -1.36985
LeftFoot  -5.42568 -0.333749 7.09061
LeftToes  1.06248e-005 4.65855e-005 -8.185e-006
504
root  -17.6923 40.3546 -15.3836 -51.8319 -85.5371 43.8662
RightUpLeg  -2.42812 -15.8405 -12.6116
RightLeg  40.9197 -9.35024 -8.86031
RightFoot  -6.337 -0.367298 7.40931
RightToes  0.00048216 0.542163 -0.142577
Spine  8.41465 2.11906 5.12931
Spine1  16.5829 5.96477 -9.61214
HEad  18.137 40.6891 -11.8246
LeftShoulder1  8.94255 -13.1489 -46.8557
LeftArm  -11.5991 18.0302 -21.0175
LeftForeArm  16.8659 -30.4061 -5.69721
LeftHand  -0.25398 0.0180481 5.50724
RightShoulder  5.66071 9.71151 36.8309
RightArm  -6.11285 3.92894 33.1003
RightForeArm  -8.00625 24.311 5.59912
RightHand  -1.34247 3.20431 -18.2883
LeftUpLeg  0.283321 5.62283 -6.12839
LeftLeg  10.7494 7.882 -1.95855
LeftFoot  -3.89037 -0.477591 7.68301
LeftToes  1.06248e-005 4.65855e-005 -8.185e-006
505
root  -17.0229 40.3483 -15.2129 -59.204 -85.8794 51.0652
RightUpLeg  1.01112 -15.3236 -12.0534
RightLeg  42.5174 -8.70912 -8.74119
RightFoot  -7.1912 -0.348009 8.25201
RightToes  0.00048216 0.542163 -0.142577
Spine  7.6739 2.52065 6.01568
Spine1  16.8188 6.77639 -10.4412
HEad  19.8216 40.7502 -10.3047
LeftShoulder1  8.95377 -13.0598 -47.1732
LeftArm  -11.8053 19.6017 -21.3813
LeftForeArm  16.4853 -29.1895 -5.42871
LeftHand  -0.25398 0.0180481 5.50724
RightShoulder  5.56149 9.55428 36.5937
RightArm  -6.38381 6.23294 33.7524
RightForeArm  -8.25262 24.7135 5.7043
RightHand  -1.45034 3.6185 -18.8519
LeftUpLeg  -0.112199 5.24737 -6.39555
LeftLeg  9.65114 8.97257 -2.45529
LeftFoot  -2.54291 -0.626088 8.32283
LeftToes  1.06248e-005 4.65855e-005 -8.185e-006
506
root  -16.3202 40.2856 -15.0462 -70.2793 -85.9735 62.3407
RightUpLeg  4.1306 -15.1728 -11.7595
RightLeg  42.8422 -6.4961 -6.70793
RightFoot  -7.73624 -0.354904 9.5764
RightToes  0.00048216 0.542163 -0.142577
Spine  6.77202 2.91822 6.58622
Spine1  16.882 7.48159 -11.2061
HEad  20.9195 40.8783 -9.34103
LeftShoulder1  8.9905 -13.0366 -47.438
LeftArm  -11.5196 21.2253 -21.9667
LeftForeArm  16.176 -27.4394 -5.04057
LeftHand  -0.25398 0.0180481 5.50724
RightShoulder  5.46864 9.46848 36.1714
RightArm  -5.95566 8.22209 34.8964
RightForeArm  -8.23956 24.9493 5.75746
RightHand  -1.47614 3.72018 -18.9707
LeftUpLeg  -1.17448 4.77868 -6.99384
LeftLeg  8.93564 10.2489 -2.77096
LeftFoot  -1.36982 -0.768996 8.89253
LeftToes  1.06248e-005 4.65855e-005 -8.185e-006
507
root  -15.575 40.178 -14.8822 -82.7119 -85.8284 75.1802
RightUpLeg  7.02081 -15.1254 -11.5932
RightLeg  41.7006 -2.51161 -2.70671
RightFoot  -7.25792 -0.473516 11.755
RightToes  0.00048216 0.542163 -0.142577
Spine  5.9035 3.25307 7.04033
Spine1  16.8572 8.07339 -12.0003
HEad  21.3378 41.1143 -8.80554
LeftShoulder1  9.01567 -13.038 -47.5691
LeftArm  -10.2744 22.5894 -22.7691
LeftForeArm  15.4619 -25.0568 -4.54454
LeftHand  -0.25398 0.0180481 5.50724
RightShoulder  5.44829 9.49808 35.9247
RightArm  -4.73798 9.93429 36.104
RightForeArm  -8.12474 25.2329 5.81681
RightHand  -1.42231 3.52616 -18.6783
LeftUpLeg  -2.75882 4.23678 -7.71452
LeftLeg  8.63153 11.5503 -2.8976
LeftFoot  -0.351733 -0.90184 9.37437
LeftToes  1.06248e-005 4.65855e-005 -8.185e-006
508
root  -14.7686 40.0454 -14.7201 -96.2299 -85.5599 89.1802
RightUpLeg  9.67895 -15.0694 -11.3863
RightLeg  39.0523 1.89182 1.35684
RightFoot  -6.20778 -0.699754 14.6334
RightToes  0.00048216 0.542163 -0.142577
Spine  5.34113 3.55072 7.65542
Spine1  16.6975 8.6332 -12.9213
HEad  21.2219 41.2943 -8.55164
LeftShoulder1  9.00575 -13.0198 -47.5689
LeftArm  -8.29399 23.4664 -23.784
LeftForeArm  14.5461 -22.1659 -4.13441
LeftHand  -0.25398 0.0180481 5.50724
RightShoulder  5.50197 9.60842 35.9799
RightArm  -2.79539 11.439 37.1834
RightForeArm  -7.90954 25.5486 5.87898
RightHand  -1.35767 3.2931 -18.3126
LeftUpLeg  -4.66635 3.83967 -8.28056
LeftLeg  8.58773 12.89 -2.95353
LeftFoot  0.690102 -1.04863 9.88386
LeftToes  1.06248e-005 4.65855e-005 -8.185e-006
